<svg width="139" height="27" viewBox="0 0 139 27" fill="none" xmlns="http://www.w3.org/2000/svg">
<path d="M29.72 21.24C28.4867 21.24 27.4033 21.0467 26.47 20.66C25.5367 20.2733 24.77 19.74 24.17 19.06C23.57 18.3733 23.1467 17.5767 22.9 16.67C22.6533 15.7633 22.5933 14.7867 22.72 13.74C22.8533 12.6867 23.16 11.7067 23.64 10.8C24.12 9.88667 24.75 9.08667 25.53 8.4C26.3167 7.70667 27.2233 7.16667 28.25 6.78C29.2767 6.39333 30.4 6.2 31.62 6.2C32.18 6.2 32.8267 6.26667 33.56 6.4C34.2933 6.53333 35.02 6.76 35.74 7.08L34.76 9C34.0533 8.70667 33.4267 8.51 32.88 8.41C32.34 8.31 31.84 8.26 31.38 8.26C30.5867 8.26 29.8633 8.41 29.21 8.71C28.5633 9.00333 27.9967 9.40667 27.51 9.92C27.03 10.4267 26.64 11.01 26.34 11.67C26.0467 12.3233 25.8533 13.0133 25.76 13.74C25.6733 14.4267 25.6967 15.0967 25.83 15.75C25.9633 16.3967 26.2033 16.98 26.55 17.5C26.8967 18.0133 27.3567 18.4233 27.93 18.73C28.5033 19.03 29.1867 19.18 29.98 19.18C30.2733 19.18 30.5633 19.17 30.85 19.15C31.1367 19.1233 31.4933 19.06 31.92 18.96L32.5 14.26H35.06L34.32 20.26C33.8067 20.48 33.2667 20.6633 32.7 20.81C32.1333 20.95 31.5867 21.0567 31.06 21.13C30.54 21.2033 30.0933 21.24 29.72 21.24ZM37.1327 21L38.9127 6.46H47.6327L47.3727 8.52H41.5127L40.2327 18.94H46.4127L46.1727 21H37.1327ZM41.5527 14.38C41.6793 14.0867 41.846 13.7833 42.0527 13.47C42.2593 13.1567 42.506 12.8933 42.7927 12.68C43.086 12.4667 43.426 12.36 43.8127 12.36H46.2327L45.9727 14.38H41.5527ZM55.2905 21.28C53.7505 21.28 52.4805 20.95 51.4805 20.29C50.4871 19.6233 49.7771 18.72 49.3505 17.58C48.9238 16.44 48.7971 15.1533 48.9705 13.72C49.1038 12.6733 49.3871 11.6933 49.8205 10.78C50.2605 9.86667 50.8338 9.06333 51.5405 8.37C52.2471 7.67667 53.0705 7.13667 54.0105 6.75C54.9571 6.35667 56.0038 6.16 57.1505 6.16C58.4571 6.16 59.5405 6.38333 60.4005 6.83C61.2605 7.27667 61.9305 7.87 62.4105 8.61C62.8905 9.35 63.2071 10.1667 63.3605 11.06C63.5205 11.9467 63.5438 12.8333 63.4305 13.72C63.3105 14.7 63.0371 15.6433 62.6105 16.55C62.1838 17.45 61.6205 18.2567 60.9205 18.97C60.2205 19.6833 59.3971 20.2467 58.4505 20.66C57.5038 21.0733 56.4505 21.28 55.2905 21.28ZM55.5305 19.22C56.2638 19.22 56.9771 19.0067 57.6705 18.58C58.3638 18.1467 58.9571 17.52 59.4505 16.7C59.9505 15.88 60.2705 14.8867 60.4105 13.72C60.5371 12.6733 60.4838 11.7367 60.2505 10.91C60.0238 10.0767 59.6271 9.42 59.0605 8.94C58.4938 8.46 57.7705 8.22 56.8905 8.22C55.9705 8.22 55.1671 8.47333 54.4805 8.98C53.7938 9.48667 53.2405 10.1567 52.8205 10.99C52.4005 11.8233 52.1305 12.7333 52.0105 13.72C51.9238 14.4067 51.9305 15.08 52.0305 15.74C52.1305 16.3933 52.3238 16.9833 52.6105 17.51C52.8971 18.03 53.2838 18.4467 53.7705 18.76C54.2571 19.0667 54.8438 19.22 55.5305 19.22ZM64.6717 21L66.4317 6.64C67.1651 6.52 67.7851 6.42667 68.2917 6.36C68.7984 6.29333 69.2617 6.24667 69.6817 6.22C70.1017 6.19333 70.5517 6.18 71.0317 6.18C72.1117 6.18 73.0617 6.36333 73.8817 6.73C74.7017 7.09667 75.3217 7.62333 75.7417 8.31C76.1617 8.99 76.3117 9.8 76.1917 10.74C76.0851 11.6267 75.7717 12.3933 75.2517 13.04C74.7317 13.68 74.0951 14.1867 73.3417 14.56C72.5884 14.9267 71.8117 15.1467 71.0117 15.22C70.7117 15.2467 70.3917 15.25 70.0517 15.23C69.7184 15.21 69.3717 15.1467 69.0117 15.04C69.1451 14.7867 69.3051 14.5267 69.4917 14.26C69.6784 13.9867 69.8917 13.7533 70.1317 13.56C70.3784 13.36 70.6517 13.2467 70.9517 13.22C71.3251 13.1867 71.6784 13.0567 72.0117 12.83C72.3451 12.5967 72.6217 12.3 72.8417 11.94C73.0684 11.5733 73.2051 11.1733 73.2517 10.74C73.3117 10.28 73.2484 9.86333 73.0617 9.49C72.8817 9.11 72.5951 8.80667 72.2017 8.58C71.8151 8.35333 71.3451 8.24 70.7917 8.24C70.4317 8.24 70.1517 8.25 69.9517 8.27C69.7517 8.29 69.4651 8.32 69.0917 8.36L67.5517 21H64.6717ZM77.5233 21L79.3033 6.46H82.0833L80.3033 21H77.5233ZM91.4766 21L84.5566 6.46H87.7166L89.5766 11.24L89.7166 11.86L89.9366 11.24L92.9966 6.46H96.1366L90.9166 13.64L94.5766 21H91.4766ZM82.5566 21L87.2966 14.5C87.4366 14.7267 87.5832 15.0467 87.7366 15.46C87.8899 15.8667 87.9699 16.3067 87.9766 16.78C87.9899 17.2467 87.8566 17.6867 87.5766 18.1L85.6166 21H82.5566Z" fill="white"/>
<path d="M96.8592 21L98.6192 6.64C99.3526 6.52 99.9726 6.42667 100.479 6.36C100.986 6.29333 101.449 6.24667 101.869 6.22C102.289 6.19333 102.739 6.18 103.219 6.18C104.299 6.18 105.249 6.36333 106.069 6.73C106.889 7.09667 107.509 7.62333 107.929 8.31C108.349 8.99 108.499 9.8 108.379 10.74C108.273 11.6267 107.959 12.3933 107.439 13.04C106.919 13.68 106.283 14.1867 105.529 14.56C104.776 14.9267 103.999 15.1467 103.199 15.22C102.899 15.2467 102.579 15.25 102.239 15.23C101.906 15.21 101.559 15.1467 101.199 15.04C101.333 14.7867 101.493 14.5267 101.679 14.26C101.866 13.9867 102.079 13.7533 102.319 13.56C102.566 13.36 102.839 13.2467 103.139 13.22C103.513 13.1867 103.866 13.0567 104.199 12.83C104.533 12.5967 104.809 12.3 105.029 11.94C105.256 11.5733 105.393 11.1733 105.439 10.74C105.499 10.28 105.436 9.86333 105.249 9.49C105.069 9.11 104.783 8.80667 104.389 8.58C104.003 8.35333 103.533 8.24 102.979 8.24C102.619 8.24 102.339 8.25 102.139 8.27C101.939 8.29 101.653 8.32 101.279 8.36L99.7392 21H96.8592ZM109.711 21L111.471 6.64C112.204 6.52 112.824 6.42667 113.331 6.36C113.837 6.29333 114.301 6.24667 114.721 6.22C115.141 6.19333 115.591 6.18 116.071 6.18C117.117 6.18 118.051 6.35667 118.871 6.71C119.697 7.05667 120.327 7.56333 120.761 8.23C121.201 8.89667 121.364 9.7 121.251 10.64C121.151 11.4267 120.884 12.1167 120.451 12.71C120.017 13.3033 119.484 13.78 118.851 14.14L118.251 14.36L118.671 14.58C119.031 14.9267 119.294 15.3367 119.461 15.81C119.634 16.2767 119.764 16.79 119.851 17.35C119.937 17.91 120.031 18.5 120.131 19.12C120.231 19.7333 120.391 20.36 120.611 21H117.671C117.497 20.4867 117.371 19.9433 117.291 19.37C117.211 18.7967 117.131 18.2333 117.051 17.68C116.971 17.1267 116.847 16.6167 116.681 16.15C116.521 15.6833 116.271 15.3067 115.931 15.02C115.744 15.0333 115.547 15.04 115.341 15.04C115.141 15.0333 114.934 15.0167 114.721 14.99C114.507 14.9567 114.291 14.9067 114.071 14.84C114.204 14.5867 114.364 14.3233 114.551 14.05C114.737 13.7767 114.954 13.54 115.201 13.34C115.447 13.14 115.724 13.0267 116.031 13C116.397 12.9667 116.744 12.8467 117.071 12.64C117.397 12.4267 117.671 12.15 117.891 11.81C118.117 11.4633 118.257 11.0733 118.311 10.64C118.371 10.18 118.301 9.77 118.101 9.41C117.901 9.04333 117.601 8.75667 117.201 8.55C116.807 8.34333 116.351 8.24 115.831 8.24C115.471 8.24 115.191 8.25 114.991 8.27C114.791 8.29 114.504 8.32 114.131 8.36L112.591 21H109.711ZM129.783 21.28C128.243 21.28 126.973 20.95 125.973 20.29C124.979 19.6233 124.269 18.72 123.843 17.58C123.416 16.44 123.289 15.1533 123.463 13.72C123.596 12.6733 123.879 11.6933 124.313 10.78C124.753 9.86667 125.326 9.06333 126.033 8.37C126.739 7.67667 127.563 7.13667 128.503 6.75C129.449 6.35667 130.496 6.16 131.643 6.16C132.949 6.16 134.033 6.38333 134.893 6.83C135.753 7.27667 136.423 7.87 136.903 8.61C137.383 9.35 137.699 10.1667 137.853 11.06C138.013 11.9467 138.036 12.8333 137.923 13.72C137.803 14.7 137.529 15.6433 137.103 16.55C136.676 17.45 136.113 18.2567 135.413 18.97C134.713 19.6833 133.889 20.2467 132.943 20.66C131.996 21.0733 130.943 21.28 129.783 21.28ZM130.023 19.22C130.756 19.22 131.469 19.0067 132.163 18.58C132.856 18.1467 133.449 17.52 133.943 16.7C134.443 15.88 134.763 14.8867 134.903 13.72C135.029 12.6733 134.976 11.7367 134.743 10.91C134.516 10.0767 134.119 9.42 133.553 8.94C132.986 8.46 132.263 8.22 131.383 8.22C130.463 8.22 129.659 8.47333 128.973 8.98C128.286 9.48667 127.733 10.1567 127.313 10.99C126.893 11.8233 126.623 12.7333 126.503 13.72C126.416 14.4067 126.423 15.08 126.523 15.74C126.623 16.3933 126.816 16.9833 127.103 17.51C127.389 18.03 127.776 18.4467 128.263 18.76C128.749 19.0667 129.336 19.22 130.023 19.22Z" fill="#F57C00"/>
<path d="M0 8.0636L2.39206 6.77252L2.48276 9.23055V17.2436L9 20.9778L15.6724 17.2436V12.109L9 15.9989V13.276L18 8.0636V18.4883L9 23.8563L1.7069 19.7331L0 18.7217V8.0636Z" fill="#F57C00"/>
<path d="M4.36719 5.57534L9.03051 3L15.7923 6.90203L13.3052 8.3848L6.85429 12.0527V17.2814L4.36719 16.0328V10.8821L11.0513 6.90203L9.03051 5.80946L4.36719 8.30676V5.57534Z" fill="white"/>
</svg>
